<svg xmlns="http://www.w3.org/2000/svg" width="171" height="39" viewBox="0 0 171 39">
    <g fill="#FFF" fill-rule="evenodd">
        <path d="M158.698 26.984A5.436 5.436 0 0 1 160 30.518c0 3.028-2.477 5.482-5.532 5.482-3.056 0-5.533-2.454-5.533-5.482s2.477-5.482 5.533-5.482c.513 0 1.009.069 1.48.198l-2.234 4.948a.822.822 0 0 0 .754 1.155c.247 0 .469-.108.62-.279l3.61-4.074zM144 3a5 5 0 1 1 0 10 5 5 0 0 1 0-10zm6.188 10.186a8.178 8.178 0 0 1-6.419 3.106c-4.512 0-8.17-3.647-8.17-8.146 0-4.499 3.658-8.146 8.17-8.146 4.288 0 7.803 3.292 8.142 7.48l8.248 3.743a5.857 5.857 0 0 1 4.98-2.758c3.237 0 5.861 2.616 5.861 5.844s-2.624 5.845-5.861 5.845c-.145 0-.289-.004-.43-.015l-3.645 4.14a8.694 8.694 0 0 1 2.386 5.99c0 4.822-3.92 8.731-8.757 8.731-4.836 0-8.756-3.91-8.756-8.732 0-4.822 3.92-8.731 8.756-8.731.983 0 1.926.16 2.808.458l2.333-5.197a5.807 5.807 0 0 1-.556-2.47l-9.09-1.142zm12.435-1.039l2.661 1.209a.709.709 0 0 1-.377 1.347L162 14.337A3.007 3.007 0 0 0 164.99 17a3.005 3.005 0 0 0 3.01-3c0-1.657-1.348-3-3.01-3-.96 0-1.816.448-2.367 1.147zM0 35.535c1.002.538 3.006 1.05 4.929 1.05 4.712 0 6.933-2.32 6.933-4.96 0-2.369-1.544-3.811-4.713-4.886-2.437-.855-3.493-1.441-3.493-2.712 0-.953.92-1.979 3.033-1.979 1.706 0 2.979.464 3.629.782l.812-2.394c-.947-.465-2.41-.856-4.387-.856-3.954 0-6.445 2.053-6.445 4.74 0 2.37 1.923 3.812 4.928 4.789 2.33.757 3.25 1.49 3.25 2.736 0 1.344-1.191 2.248-3.33 2.248-1.707 0-3.332-.488-4.415-1.05L0 35.534zM28.868 36.317h3.359V19.252h-3.359zM35.828 36.317h3.358V19.252h-3.358zM56.762 36.317h3.33V30.16c0-.342.055-.66.109-.929.298-1.343 1.381-2.272 2.979-2.272.406 0 .704.049.975.098v-2.834a3.876 3.876 0 0 0-.785-.074c-1.409 0-2.952.856-3.602 2.542l-.217-2.273h-2.898c.082 1.076.109 2.224.109 3.836v8.063zM75.99 31.65h-5.796l-1.571 4.667h-3.44l5.85-16.467h4.252l5.931 16.467h-3.575L75.99 31.65zm-5.255-2.272h4.686l-1.436-4.056c-.352-1.001-.65-2.125-.975-3.078-.27.953-.542 2.101-.866 3.078l-1.409 4.056zM96.409 22.22v2.198h-1.896v2.248h1.896v5.595c0 1.564.324 2.639 1.029 3.323.622.61 1.652 1.001 2.87 1.001 1.057 0 1.923-.146 2.41-.317l-.054-2.297c-.379.098-.677.147-1.3.147-1.272 0-1.706-.757-1.706-2.199v-5.253h3.17V24.42h-3.17v-3.667l-3.25 1.468zM108.704 24.418h-3.358v11.899h3.358zM110.789 24.418l4.902 11.899h3.277l5.036-11.899h-3.52l-2.085 6.035c-.352 1.075-.65 2.004-.894 2.981-.325-.977-.596-1.93-.975-2.98l-2.14-6.036h-3.601zM24.968 35.989c-1.082.337-2.478.596-4.116.597-4.278 0-6.797-2.395-6.797-6.035 0-3.298 2.22-6.401 6.445-6.401 4.307 0 5.688 3.176 5.688 5.79 0 .562-.055 1.002-.108 1.27h-8.83c.082 2.15 1.95 3.08 4.063 3.08 1.544 0 2.653-.197 3.655-.538v2.237zm-7.717-6.88h5.795c.027-1.099-.514-2.907-2.735-2.907-2.058 0-2.925 1.686-3.06 2.907zM52.833 35.989c-1.083.337-2.478.596-4.116.597-4.279 0-6.797-2.395-6.797-6.035 0-3.298 2.22-6.401 6.445-6.401 4.306 0 5.687 3.176 5.687 5.79 0 .562-.054 1.002-.108 1.27h-8.829c.082 2.15 1.95 3.08 4.062 3.08 1.544 0 2.653-.197 3.656-.538v2.237zm-7.718-6.88h5.796c.027-1.099-.515-2.907-2.735-2.907-2.059 0-2.925 1.686-3.06 2.907zM92.51 33.727c-.65.244-1.463.464-2.628.464-2.274 0-4.035-1.392-4.035-3.835-.027-2.175 1.49-3.86 4.035-3.86 1.192 0 1.975.244 2.517.464v-2.454a9.88 9.88 0 0 0-2.625-.357c-4.631 0-7.34 2.786-7.34 6.353 0 3.689 2.682 6.083 6.798 6.083 1.345 0 2.51-.226 3.277-.469v-2.389zM135.735 35.989c-1.082.337-2.478.596-4.116.597-4.278 0-6.797-2.395-6.797-6.035 0-3.298 2.221-6.401 6.445-6.401 4.307 0 5.688 3.176 5.688 5.79a6.71 6.71 0 0 1-.109 1.27h-8.828c.081 2.15 1.95 3.08 4.062 3.08 1.544 0 2.653-.197 3.655-.538v2.237zm-7.717-6.88h5.795c.027-1.099-.514-2.907-2.735-2.907-2.058 0-2.925 1.686-3.06 2.907zM105 20.776c0-.98.802-1.776 1.792-1.776s1.792.795 1.792 1.776c0 .98-.802 1.776-1.792 1.776S105 21.757 105 20.776z"/>
    </g>
</svg>
